<svg width="46" height="60" viewBox="0 0 46 60" fill="none" xmlns="http://www.w3.org/2000/svg">
<path fill-rule="evenodd" clip-rule="evenodd" d="M30.4659 59.4109C30.4129 59.4348 30.3587 59.4559 30.3036 59.4743L30.264 59.4848C30.1157 59.5311 29.9613 59.5547 29.8059 59.5548C29.5625 59.5603 29.3212 59.5089 29.1012 59.4046C28.8812 59.3003 28.6886 59.1461 28.5387 58.9542C28.4659 58.8652 28.4026 58.7687 28.35 58.6664L17.8401 40.4636V46.5475C17.8401 47.0623 17.5959 47.5441 17.1894 47.849L17.0283 47.9546L2.9492 56.0832C2.70201 56.2256 2.4217 56.3005 2.13643 56.3003C1.85115 56.3001 1.57094 56.2249 1.32391 56.0822C1.07689 55.9395 0.871758 55.7343 0.729099 55.4873C0.58644 55.2402 0.511278 54.96 0.511158 54.6747V10.0112C0.511158 9.34198 0.867557 8.84698 1.34936 8.58694L15.4034 0.475536C15.7763 0.2609 16.219 0.202758 16.6346 0.313842C17.0503 0.424926 17.4049 0.696183 17.621 1.06822L28.1744 19.275V10.0112C28.1744 9.49642 28.4199 9.01462 28.8278 8.7097L28.9875 8.6041L43.0666 0.475536C43.3138 0.333129 43.5941 0.258253 43.8794 0.258423C44.1647 0.258593 44.4449 0.333805 44.6919 0.476507C44.9389 0.619209 45.1441 0.824381 45.2867 1.07143C45.4294 1.31847 45.5046 1.5987 45.5047 1.88398V49.7987C45.5047 50.3795 45.1945 50.9154 44.6916 51.2058L30.6956 59.2881C30.6256 59.3331 30.5524 59.3728 30.4765 59.4069V59.4056L30.4659 59.4109ZM42.2535 4.69954L31.4256 10.9511V55.1103L42.2535 48.8588V4.69954ZM15.6212 4.10158L4.35632 10.6052L28.1744 51.8592V25.7601L15.6225 4.10158H15.6212ZM3.761 16.0793V51.8592L14.589 45.6077V34.8325L12.6697 31.5087L3.761 16.0806V16.0793Z" fill="#040062"/>
</svg>
